<?xml version="1.0" standalone="no"?>
<!DOCTYPE svg PUBLIC "-//W3C//DTD SVG 20010904//EN"
 "http://www.w3.org/TR/2001/REC-SVG-20010904/DTD/svg10.dtd">
<svg version="1.0" xmlns="http://www.w3.org/2000/svg"
 width="1978.000000pt" height="1015.000000pt" viewBox="0 0 1978.000000 1015.000000"
 preserveAspectRatio="xMidYMid meet">

<g transform="translate(0.000000,1015.000000) scale(0.100000,-0.100000)"
fill="#000000" stroke="none">
<path d="M4375 9181 c-60 -3 -117 -10 -125 -16 -8 -5 -44 -13 -80 -17 -105
-10 -210 -26 -285 -43 -38 -9 -92 -20 -120 -25 -96 -19 -440 -129 -548 -176
-43 -19 -82 -34 -87 -34 -25 0 -382 -177 -482 -239 -37 -22 -70 -41 -74 -41
-3 0 -53 -31 -110 -70 -57 -38 -106 -70 -110 -70 -4 0 -32 -19 -63 -42 -31
-24 -68 -52 -83 -63 -185 -139 -679 -627 -809 -800 -143 -189 -158 -210 -159
-218 0 -4 -27 -47 -59 -95 -32 -48 -73 -114 -91 -147 -18 -33 -40 -71 -50 -85
-73 -104 -339 -725 -340 -793 0 -9 -4 -25 -9 -35 -35 -70 -100 -325 -131 -522
-17 -105 -29 -165 -39 -200 -6 -19 -11 -55 -11 -80 0 -25 -5 -63 -9 -85 -16
-67 -22 -518 -11 -735 15 -301 32 -446 59 -513 6 -16 11 -45 11 -64 0 -20 4
-50 10 -67 5 -17 18 -76 29 -131 35 -168 64 -273 92 -327 5 -10 9 -26 9 -35 0
-21 57 -183 94 -268 42 -96 43 -98 56 -135 20 -54 160 -340 190 -385 15 -22
44 -71 65 -110 21 -38 61 -103 88 -143 27 -40 59 -92 72 -114 111 -195 697
-803 954 -989 110 -81 242 -170 286 -194 28 -15 63 -37 79 -49 55 -39 305
-171 396 -209 19 -8 76 -32 125 -55 50 -22 126 -52 170 -66 44 -15 88 -31 97
-36 10 -6 26 -10 36 -10 10 0 22 -4 28 -10 11 -11 241 -79 309 -90 28 -5 70
-14 95 -20 25 -7 63 -14 85 -16 22 -3 63 -11 90 -19 28 -8 91 -19 140 -25 50
-7 113 -16 140 -22 28 -5 183 -12 346 -15 326 -6 583 10 774 49 95 19 143 28
260 47 95 16 310 74 363 97 29 13 57 24 63 24 5 0 51 14 101 30 50 17 95 30
101 30 5 0 35 13 66 28 31 16 94 43 141 61 47 18 139 59 205 92 66 32 123 59
127 59 3 0 35 16 70 36 34 20 105 59 157 86 51 27 107 59 125 73 17 13 61 39
98 59 37 19 86 50 110 68 24 18 76 53 117 78 40 25 88 56 106 70 18 14 86 63
151 110 64 47 137 103 163 124 25 22 78 63 118 93 39 29 74 57 78 63 3 5 38
34 78 64 113 85 236 202 616 585 343 345 407 414 575 619 43 54 97 118 120
144 22 25 58 68 78 95 21 26 66 84 100 127 35 44 87 112 115 152 50 68 81 93
102 80 5 -4 35 -41 65 -84 31 -42 76 -102 101 -132 25 -30 73 -91 107 -135 34
-44 84 -106 112 -139 129 -149 155 -179 211 -247 125 -153 781 -815 942 -952
47 -40 117 -99 155 -132 171 -148 676 -525 703 -525 3 0 40 -25 82 -56 43 -30
94 -63 113 -72 19 -8 60 -32 90 -52 84 -56 325 -184 440 -234 14 -6 45 -22 70
-36 25 -15 72 -36 105 -49 92 -35 94 -36 190 -79 50 -21 137 -54 195 -72 58
-18 134 -43 170 -56 100 -36 268 -80 360 -94 95 -15 159 -29 172 -36 18 -11
89 -23 203 -34 55 -5 141 -14 190 -19 112 -13 544 -13 685 0 228 20 401 42
418 53 7 4 39 12 70 17 187 31 469 105 497 130 5 5 17 9 27 9 10 0 26 4 36 10
9 5 53 21 97 35 44 15 121 45 170 67 50 22 106 47 125 55 38 15 76 34 250 125
63 33 122 65 130 72 8 8 58 39 110 70 103 62 255 169 403 283 170 132 591 564
669 689 14 21 46 62 72 90 25 29 46 56 46 60 0 5 27 45 60 89 33 44 60 84 60
88 0 4 17 34 39 65 21 31 56 91 78 132 22 41 62 116 89 165 27 50 56 106 64
125 7 19 30 69 51 110 20 41 51 118 69 170 17 52 37 109 45 125 15 35 79 231
93 290 22 85 35 131 47 165 23 60 71 328 85 475 5 44 14 107 21 140 18 85 18
841 0 940 -8 39 -17 104 -21 145 -10 86 -31 222 -53 330 -8 41 -17 86 -20 100
-3 14 -14 50 -26 80 -12 30 -21 65 -21 77 0 12 -4 32 -9 45 -5 13 -21 64 -36
113 -22 77 -48 149 -86 240 -4 11 -18 49 -30 85 -12 36 -43 110 -69 165 -26
55 -62 132 -80 170 -18 39 -40 81 -50 95 -9 14 -38 64 -63 112 -26 48 -62 109
-82 136 -19 27 -35 53 -35 57 0 5 -27 45 -60 91 -33 45 -60 85 -60 88 0 3 -21
33 -48 67 -26 33 -54 72 -63 85 -9 13 -33 43 -55 67 -21 23 -68 76 -103 117
-77 90 -421 431 -473 468 -20 15 -62 47 -94 72 -91 72 -124 96 -204 149 -41
27 -93 63 -115 80 -22 16 -71 46 -110 67 -38 20 -88 49 -110 64 -60 40 -432
220 -455 220 -6 0 -18 4 -28 9 -69 36 -143 64 -247 96 -66 20 -163 49 -215 65
-168 52 -345 87 -540 109 -41 5 -95 14 -120 21 -67 20 -844 20 -920 1 -30 -7
-91 -17 -135 -22 -44 -4 -96 -10 -115 -14 -260 -45 -386 -72 -422 -91 -14 -8
-34 -14 -44 -14 -19 0 -79 -18 -106 -31 -10 -5 -25 -9 -33 -9 -18 0 -188 -58
-250 -85 -46 -20 -66 -28 -115 -45 -50 -17 -65 -24 -160 -68 -48 -23 -128 -59
-180 -82 -51 -23 -105 -50 -120 -60 -14 -10 -69 -39 -121 -64 -53 -25 -106
-54 -120 -64 -13 -11 -55 -36 -94 -57 -97 -53 -425 -271 -521 -347 -34 -26
-64 -48 -68 -48 -3 0 -32 -20 -63 -45 -32 -25 -98 -77 -148 -115 -49 -38 -124
-99 -165 -134 -41 -36 -106 -92 -145 -123 -74 -61 -626 -609 -811 -804 -60
-63 -144 -158 -186 -210 -43 -52 -107 -128 -143 -169 -36 -41 -97 -115 -135
-165 -39 -49 -104 -133 -146 -185 -41 -52 -84 -109 -95 -127 -23 -37 -53 -50
-74 -33 -8 7 -36 42 -62 79 -26 36 -75 100 -108 142 -33 42 -96 122 -140 179
-81 104 -154 192 -235 285 -25 28 -54 63 -66 78 -11 15 -45 53 -75 84 -30 32
-110 119 -178 193 -177 192 -462 472 -625 614 -77 66 -165 144 -196 171 -31
28 -82 70 -114 95 -33 25 -94 73 -136 106 -43 34 -104 80 -136 103 -33 22 -81
59 -109 80 -27 22 -54 40 -59 40 -5 1 -23 12 -40 24 -58 44 -136 97 -142 97
-4 0 -29 16 -55 35 -27 19 -84 54 -126 77 -43 23 -96 53 -118 68 -67 45 -311
173 -420 220 -27 12 -86 39 -130 60 -44 21 -96 43 -115 50 -54 19 -71 25 -125
50 -65 29 -280 100 -305 100 -10 0 -22 5 -25 10 -3 6 -16 10 -28 10 -21 0 -86
20 -132 39 -20 9 -161 41 -270 62 -119 23 -167 29 -480 63 -151 16 -516 19
-760 7z m745 -1253 c52 -5 122 -13 155 -18 33 -5 87 -13 120 -18 33 -4 69 -13
80 -19 11 -6 50 -19 85 -28 36 -9 97 -25 135 -36 39 -11 88 -25 110 -32 22 -6
74 -25 115 -43 41 -18 98 -40 125 -49 53 -19 357 -164 415 -200 19 -12 64 -37
100 -57 91 -49 354 -216 431 -273 35 -27 84 -63 109 -81 99 -72 135 -101 186
-146 29 -26 63 -52 75 -59 102 -54 792 -734 984 -968 59 -72 188 -225 195
-231 5 -5 38 -46 137 -174 21 -26 63 -79 95 -116 31 -37 71 -91 89 -121 18
-30 47 -72 64 -94 18 -22 55 -74 83 -115 28 -41 74 -106 102 -145 27 -38 50
-79 50 -90 0 -11 -24 -52 -53 -90 -28 -39 -68 -96 -89 -126 -20 -31 -56 -80
-80 -110 -24 -30 -55 -72 -70 -94 -56 -83 -223 -293 -309 -389 -31 -34 -65
-76 -75 -92 -67 -105 -521 -584 -829 -873 -267 -252 -290 -271 -571 -480 -32
-24 -91 -68 -130 -98 -39 -29 -73 -53 -77 -53 -4 0 -42 -25 -84 -55 -43 -30
-100 -66 -128 -81 -27 -14 -70 -41 -95 -59 -25 -17 -72 -45 -105 -61 -33 -15
-96 -49 -141 -74 -44 -25 -107 -57 -140 -70 -32 -13 -63 -26 -69 -30 -5 -4
-21 -11 -35 -15 -14 -4 -56 -23 -95 -41 -38 -18 -117 -49 -175 -67 -58 -19
-123 -41 -145 -50 -22 -8 -67 -21 -100 -28 -33 -7 -64 -16 -70 -20 -5 -4 -28
-9 -50 -12 -22 -3 -76 -12 -120 -21 -160 -33 -271 -41 -575 -41 -288 0 -429 9
-542 34 -24 6 -70 15 -103 21 -86 16 -119 26 -320 92 -99 33 -205 73 -235 88
-30 16 -95 48 -145 71 -49 23 -127 64 -173 93 -46 28 -98 60 -116 71 -53 31
-151 103 -250 184 -110 89 -409 389 -450 451 -17 25 -40 56 -52 70 -34 40
-170 242 -194 291 -12 24 -42 76 -66 115 -24 39 -44 74 -44 77 0 6 -18 47 -70
162 -10 22 -25 56 -34 75 -13 30 -43 121 -112 340 -33 108 -63 252 -84 410
-25 192 -30 270 -29 475 0 245 6 329 48 625 12 83 81 337 125 460 8 25 16 51
16 57 0 7 16 47 35 89 19 41 35 78 35 81 0 3 13 33 29 67 16 33 38 81 48 106
11 25 37 69 57 99 20 29 36 58 36 65 0 7 27 52 60 100 33 49 60 90 60 93 0 3
26 39 58 81 32 42 71 95 87 117 57 77 340 357 455 449 105 84 293 216 307 216
4 0 14 6 22 14 23 20 135 82 211 117 119 55 150 69 154 69 3 0 33 13 68 29 90
42 163 66 348 112 47 11 90 24 95 29 6 4 28 10 50 14 48 7 144 22 200 31 141
23 571 25 785 3z m10290 2 c52 -5 126 -16 165 -24 38 -9 84 -16 102 -16 17 0
34 -4 38 -9 3 -5 20 -12 38 -16 82 -16 308 -82 362 -105 11 -5 38 -16 60 -26
22 -9 72 -32 112 -51 40 -18 76 -33 80 -33 5 0 55 -27 112 -60 57 -33 107 -60
111 -60 4 0 34 -19 66 -43 33 -23 86 -60 119 -81 101 -67 192 -144 363 -311
151 -148 258 -265 285 -312 7 -11 37 -54 68 -94 101 -134 239 -377 328 -581
12 -26 21 -52 21 -57 0 -5 16 -48 36 -97 35 -86 57 -152 74 -224 5 -19 16 -59
24 -89 9 -29 16 -61 16 -71 0 -9 9 -52 21 -96 28 -108 38 -174 50 -349 12
-171 5 -698 -10 -766 -5 -24 -18 -87 -27 -139 -17 -95 -35 -179 -55 -255 -6
-22 -15 -58 -21 -80 -18 -75 -30 -110 -80 -240 -27 -71 -53 -139 -58 -150 -23
-63 -172 -349 -195 -375 -7 -8 -34 -51 -60 -95 -26 -44 -67 -103 -91 -132 -24
-28 -44 -55 -44 -61 0 -25 -365 -400 -480 -492 -85 -68 -314 -230 -326 -230
-3 0 -26 -13 -50 -30 -65 -44 -357 -184 -444 -214 -41 -13 -115 -39 -165 -57
-111 -39 -171 -54 -360 -87 -220 -39 -300 -44 -585 -39 -151 3 -311 10 -355
15 -115 14 -226 33 -253 43 -13 5 -33 9 -44 9 -12 0 -35 4 -52 9 -17 5 -51 15
-76 22 -97 26 -349 113 -418 145 -41 19 -76 34 -79 34 -7 0 -149 65 -208 96
-167 86 -244 128 -270 148 -16 13 -61 40 -100 61 -38 21 -104 62 -147 91 -42
30 -79 54 -83 54 -4 0 -35 22 -69 49 -33 26 -88 65 -121 86 -33 21 -78 54
-100 74 -22 20 -83 70 -134 111 -52 41 -123 102 -158 134 -35 33 -78 70 -95
82 -35 26 -281 269 -513 505 -167 170 -262 275 -381 419 -39 47 -79 92 -88
100 -10 8 -33 37 -52 65 -19 27 -53 73 -76 101 -24 29 -69 83 -100 122 -32 38
-58 73 -58 77 0 4 -32 48 -71 97 -38 49 -78 102 -87 117 -9 14 -36 52 -59 82
-24 31 -43 60 -43 66 0 5 -9 18 -21 29 -24 21 -49 66 -49 86 0 17 114 191 166
255 46 55 63 79 123 165 24 35 72 99 107 143 184 234 226 286 280 346 32 37
93 106 134 155 99 117 259 284 510 532 275 273 500 471 698 615 36 26 75 55
86 66 12 10 48 37 81 60 154 107 205 141 210 141 3 0 39 23 79 50 40 28 76 50
80 50 4 0 46 24 94 53 106 64 398 210 467 232 28 9 79 30 115 47 80 37 93 42
150 58 25 7 64 19 86 26 23 7 79 23 125 34 46 12 92 27 104 33 11 6 45 15 75
19 30 4 84 12 120 17 36 5 79 12 95 16 104 22 544 25 775 5z"/>
<path d="M3005 5418 c-3 -7 -4 -285 -3 -618 l3 -605 1872 -3 1872 -2 6 32 c3
18 5 296 3 618 l-3 585 -1873 3 c-1493 2 -1874 0 -1877 -10z"/>
<path d="M14360 6683 c-8 -3 -23 -12 -32 -21 -17 -14 -18 -56 -18 -601 0 -322
-3 -596 -6 -608 l-6 -23 -622 -2 -621 -3 -3 -617 -2 -618 624 0 c560 0 624 -2
630 -16 3 -9 6 -288 6 -620 l0 -604 26 -10 c15 -6 258 -10 620 -10 l594 0 0
618 c0 339 4 623 8 629 6 10 146 13 623 15 l614 3 0 615 0 615 -617 3 c-340 1
-619 3 -620 5 -2 1 -5 283 -8 627 l-5 625 -585 2 c-322 1 -592 -1 -600 -4z"/>
</g>
</svg>
